<svg width="361" height="313" viewBox="0 0 361 313" fill="none" xmlns="http://www.w3.org/2000/svg">
<path d="M310.068 29.473C340.553 54.493 352.278 97.027 357.437 137.893C363.065 179.176 362.127 219.208 341.96 247.981C321.324 277.171 281.928 295.102 241.594 304.693C201.729 314.284 161.395 315.952 129.972 302.608C98.0802 289.681 75.0992 262.159 49.7732 231.301C24.4472 200.86 -3.22379 167.5 1.46621 138.31C6.15621 109.12 43.2072 84.1 78.8512 59.497C114.495 35.311 148.263 11.542 190.004 3.61899C231.276 -3.88701 280.052 4.036 310.068 29.473Z" fill="url(#paint0_linear_25_123)"/>
<defs>
<linearGradient id="paint0_linear_25_123" x1="62.9882" y1="297.812" x2="287.151" y2="-2.50808" gradientUnits="userSpaceOnUse">
<stop stop-color="#F3E3BF"/>
<stop offset="0.442708" stop-color="#61BAB8"/>
<stop offset="1" stop-color="#092F30"/>
</linearGradient>
</defs>
</svg>
